/* XPM */
static char *result[] = {
/* columns rows colors chars-per-pixel */
"50 50 9 1 ",
"  c #040404",
". c #161616",
"X c gray21",
"o c #434949",
"O c #4B4B4B",
"+ c #808078",
"@ c #B2B1AF",
"# c #DECBB6",
"$ c #FAEFEB",
/* pixels */
"XXX...   XXXXXXXXXXXXX...   XXXXXX   ....XXXXXXXXX",
"XXX...   XXXXXXXXXXXXX...   XXXXXX   ....XXXXXXXXX",
"XXX...   XXXXXXXXXXXXX...   XXXXXX   ....XXXXXXXXX",
"...      ...XXXXXXX...      XXXOOOXXX    .........",
"...      ...XXXXXXX...      XXXOOOXXX    .........",
"...      ...XXXXXXX...      XXXOOOXXX    .........",
"   XXXXXX   .......      ...XXXXXXXXX             ",
"   XXXXXX   .......      ...XXXXXXXXX             ",
"   XXXXXX   .......      ...XXXXXXXXX             ",
"XXXOOOXXX          XXXXXX   .........          XXX",
"XXXOOOXXX          XXXXXX   .........          XXX",
"XXXOOOXXX          XXXXXX   .........          XXX",
"OOOOOOXXX   XXXXXXXOOOXXXXXX         XXXX   XXXOOO",
"OOOOOOXXX   XXXXXXXOOOXXXXXX         XXXX   XXXOOO",
"OOOOOOXXX   XXXXXXXOOOXXXXXX         XXXX   XXXOOO",
"OOOOOOXXX   XXXXXXXOOOXXXXXX         XXXX   XXXOOO",
"XXXXXXXXX   XXXXOOOXXXXXX...   XXXXXXXXXX   XXXXXX",
"XXXXXXXXX   XXXXOOOXXXXXX...   XXXXXXXXXX   XXXXXX",
"XXXXXXXXX   XXXXOOOXXXXXX...   XXXXXXXXXX   XXXXXX",
"XXX......   XXXXXXXXXX...   XXXOOOOOOXXXX   ...XXX",
"XXX......   XXXXXXXXXX.@@###$$XOOOOOOXXXX   ...XXX",
"XXX......   XXXXXXXXXX.@@###$$XOOOOOOXXXX   ...XXX",
"...      ............#########$$XXXXXXXXX...   ...",
"...      ............#########$$XXXXXXXXX...   ...",
"...      ............@@##XXX##XXXXXXXXXXX...   ...",
"                     @@##...##...........         ",
"                     @@##...##...........         ",
"                     @@#########.........         ",
"XXX      XXXXXXXXXX  @@#########            XXXXXX",
"XXX      XXXXXXXXXXoo++  ###  ##            XXXXXX",
"XXX      XXXXXXXXXXoo++  ###  ##            XXXXXX",
"XXX   XXXOOOOOOOXXX   XXXXXXXXXXXXXXX    XXXXXXOOO",
"XXX   XXXOOOOOOOXXX   XXXXXXXXXXXXXXX    XXXXXXOOO",
"XXX   XXXOOOOOOOXXX   XXXXXXXXXXXXXXX    XXXXXXOOO",
"XXX   XXXOOOXXXXXXX   XXXXXXOOOOOOXXX    ......XXX",
"XXX   XXXOOOXXXXXXX   XXXXXXOOOOOOXXX    ......XXX",
"XXX   XXXOOOXXXXXXX   XXXXXXOOOOOOXXX    ......XXX",
"XXX   XXXXXXXXXX...   ...XXXXXXXXXXXX          ...",
"XXX   XXXXXXXXXX...   ...XXXXXXXXXXXX          ...",
"XXX   XXXXXXXXXX...   ...XXXXXXXXXXXX          ...",
"XXX   XXXXXXXXXX...   ...XXXXXXXXXXXX          ...",
"...   XXXXXX....         ............    XXXXXX   ",
"...   XXXXXX....         ............    XXXXXX   ",
"...   XXXXXX....         ............    XXXXXX   ",
"      ......    XXXXXXXXX            XXXXOOOXXXXXX",
"      ......    XXXXXXXXX            XXXXOOOXXXXXX",
"      ......    XXXXXXXXX            XXXXOOOXXXXXX",
"XXXXXX      XXXXOOOOOOXXX   XXXXXX   XXXXOOOOOOXXX",
"XXXXXX      XXXXOOOOOOXXX   XXXXXX   XXXXOOOOOOXXX",
"XXXXXX      XXXXOOOOOOXXX   XXXXXX   XXXXOOOOOOXXX"
};
