/* XPM */
static char *result[] = {
/* columns rows colors chars-per-pixel */
"50 50 153 2 ",
"   c #00000C",
".  c #04080D",
"X  c #0A0B0F",
"o  c #030213",
"O  c #0D0315",
"+  c #0C0A11",
"@  c #140D15",
"#  c #1B0F19",
"$  c #171014",
"%  c #1B1216",
"&  c #1E1218",
"*  c #280F1F",
"=  c #2F1813",
"-  c #25141C",
";  c #2A161C",
":  c #261A19",
">  c #2E191E",
",  c #321B1D",
"<  c #3B2415",
"1  c #35211C",
"2  c #3F311F",
"3  c #080024",
"4  c #1A0027",
"5  c #1E0029",
"6  c #25012A",
"7  c #28082D",
"8  c #2D0A2C",
"9  c #3D0627",
"0  c #340C2D",
"q  c #3A0C2D",
"w  c #331A20",
"e  c #3C1E22",
"r  c #3E132D",
"t  c #3C192A",
"y  c #2B0E30",
"u  c #360930",
"i  c #341035",
"p  c #3D1433",
"a  c #3B1238",
"s  c #3E2023",
"d  c #4C2E1A",
"f  c #440C2B",
"g  c #401E27",
"h  c #431B2E",
"j  c #4A1F2E",
"k  c #431B31",
"l  c #481C32",
"z  c #6C1C33",
"x  c #422023",
"c  c #482527",
"v  c #4D2729",
"b  c #4B2C2B",
"n  c #56252F",
"m  c #59272F",
"M  c #512F2E",
"N  c #5B292F",
"B  c #473A22",
"V  c #52302E",
"C  c #543D28",
"Z  c #4E2032",
"A  c #542332",
"S  c #5B2731",
"D  c #5C2830",
"F  c #5F233A",
"G  c #5D3633",
"H  c #7D2F2A",
"J  c #6C3A2C",
"K  c #773A22",
"L  c #662430",
"P  c #6B2130",
"I  c #642A33",
"U  c #6A2D33",
"Y  c #702230",
"T  c #742833",
"R  c #7D2E3E",
"E  c #613733",
"W  c #693037",
"Q  c #6B3138",
"!  c #763133",
"~  c #7B3333",
"^  c #7F3A3D",
"/  c #504126",
"(  c #5A4727",
")  c #5C4C26",
"_  c #69422B",
"`  c #745729",
"'  c #784D36",
"]  c #775437",
"[  c #7A5539",
"{  c #813634",
"}  c #843E3E",
"|  c #B05C12",
" . c #844324",
".. c #8E4B26",
"X. c #834E29",
"o. c #8D5C2F",
"O. c #8F4536",
"+. c #8F4E35",
"@. c #8A413F",
"#. c #944E39",
"$. c #925638",
"%. c #98563C",
"&. c #905D39",
"*. c #8F6132",
"=. c #876339",
"-. c #9A673B",
";. c #906D3B",
":. c #93733E",
">. c #A46F3D",
",. c #AB763B",
"<. c #A17F3C",
"1. c #AD783D",
"2. c #B07A3E",
"3. c #D7771E",
"4. c #D2781D",
"5. c #823243",
"6. c #843A44",
"7. c #913647",
"8. c #874041",
"9. c #894241",
"0. c #914544",
"q. c #984746",
"w. c #934844",
"e. c #9B4A48",
"r. c #A04C4A",
"t. c #9D6240",
"y. c #977A41",
"u. c #A16743",
"i. c #B1724A",
"p. c #A5823C",
"a. c #C48322",
"s. c #D0922E",
"d. c #C68D33",
"f. c #CE9A33",
"g. c #C29439",
"h. c #D7A730",
"j. c #DDA832",
"k. c #DAAE3A",
"l. c #B09341",
"z. c #CAA946",
"x. c #DFBF4A",
"c. c #E4C64A",
"v. c #EFD44F",
"b. c #F2D34D",
"n. c #F8D74A",
"m. c #FCDC4E",
"M. c #E9D553",
"N. c #F6D951",
"B. c #F7E64A",
"V. c #F9EA48",
"C. c #FFE551",
"Z. c #FFEE52",
"A. c #FFFF55",
/* pixels */
"v v v x x x x x x v v v v v v v G G G G G G G G G G G G G G G x x x v v v v v v v v v v v v v v v v ",
"v v v x x x x x x v v b M v v v G G G G G G G G G G G G G G G x x x v v v v v v v v v v v v v v v v ",
"v v v x x x x x x v v v v v v v G G G G G G G G G G G G G G G x g x v v v v v v v v v v v b v v v v ",
"x x x G G G G G G G G G v v v v g e d G G G G G G G G G x x x G G G G G G G G G G G G G v v v v v b ",
"x x x G G G G G G G G G v v v v g g x G G G G G G G G G x x x G G G G G G G G G G G G G v v v v v v ",
"x x x G G G G G G G G G v v v v x x x E G G G G G G G G x x x G G G G G G G G G G G G G v v v v v v ",
"G G G G G G G G G G G G G G G G v v v x x x x x x x x x G G G G G G G G G G G G G G G G G G G v v v ",
"G G G G G G G G G G G G G G G G v v v x x x x x x x x x G G G G G G G G G G G G G G G G G G G v v v ",
"G G G G G G G G G G G G G G G G v v v x x x x x x x x x G G G G G G G G G G G G G G G G G G G v v v ",
"G G G G G G G G G G G G G G G G v v v v v v G G G G G G v v v G G G G G G G G G G G G G G G G v v v ",
"G G G G G G G G G G G G G G G G v v v v v v G G G G G G v v v G G G G G G G G G G G G G G G G v v d ",
"G G G G G G G G G G G G G G G G v v v v v v G G G G G G v v v G G G G G G G G G G G G G G G G v v b ",
"x x x G G G G G G G G G v x o @ $ s v G G G G G G G G G G G G v v $ % @ o x v c v x x x x x x v v v ",
"x x x G G G G G G G b b s s d 1 - w s b b b b b b b b b v b b < e - - , d s s s x x x x x x x v v v ",
"x x x G G G G G G G % %   < 3. .a * . + O + + + + + O + + + + X @ k i  .3.<   % & x x x x x x v v v ",
"x x x G G G G G G G % - t _ j.o.i c c c c c c c c c c c c c c c c v i *.j._ t - % x x x x x x b v v ",
"v v v x x x x x x v @ w 7.i.A.l.9 ^ r.q.w.q.q.q.q.q.q.q.q.w.q.e.7.D f l.A.i.7.w $ G G G G G G x x x ",
"v v v x x x x x x v $ > 6.%.j.*.0 Q 0.} 8.@.8.8.8.@.8.@.@.8.8.9.' Z r *.h.%.6.> $ G G G G G G x x x ",
"v v v x x x s x x v $ > 6.O.| K 7 W w.9.8.8.8.8.8.8.8.8.8.8.8.9.^ t y K | O.6.> $ G G G G G G x x x ",
"v v v G G G G G G G $ > 6.#.a.X.7 W 0.} } } @.@.} } @.} } } @.@.^ Z 8 X.a.#.6.w $ G G G G G G G G G ",
"v v v G G G G G G G $ > 5.u.V.p.q U ~ ~ ~ ~ ~ ~ ! ~ ~ ~ ~ ~ ~ ~ ! S f p.V.u.5.> $ G G G G G G G G G ",
"v v v G G G G G G G $ > R -.B.<.0 U { ~ ~ ~ ~ H ~ ~ ~ ~ ~ ~ ~ ~ ! A q p.B.t.R > @ G G G G G G G G G ",
"v v v G G G G G G G $ > Y $.v.:.5 D { ~ ~ ~ ~ { { { { { ~ ~ ~ ~ ! t 6 :.v.$.Y > @ G G G G G G G G G ",
"v v v G G G G G G G $ > T +.k.*.8 I { H ~ ! Q U I I U U Q ~ ~ ~ T v 0 *.k.+.T ; % G G G G G G G G G ",
"v v v E G G G G G G % - z ~ |  .Z L Y P Y L N h 5 6 4 h m L Y Y P D A  .| H z - $ G G G G G G G G G ",
"v b v G G G G G G G @ 1 >.,.f.o.0 ' 2.>.1.&.r G ;.=.:.G r &.,.,.-.Z i o.f.,.>.1 @ G G G G G G G G G ",
"v v v G G G G G G G O d m.v.M.:.3 p.Z.b.C.z.4 [ C.c.n.] 4 z.C.m.x.t 5 y.M.b.m.2 + E G G G G G G G G ",
"v v v G G G G G G G $ : / ` s.o.r V ) ( ) C u J a.g.c.' 8 C ) ) ( Z f o.s.` / : % G G G G G G G G G ",
"v v v v v v G G G G - @   = 4...F 8       O p J | d.N.[ u O     O m A ..3.=   @ - G G G G G G v v v ",
"v v v v v v G G G G % - v x < , & e v c v h # ; < d B , # g j v j - - = < c j - % G G G G G G v v v ",
"v v v v v v G G G G % - U j o @ X e I D I v $ @ O O   @ @ v I I n @ @ O   c U - % G G G G G E v v v ",
"v v v v v v v v c n % - S A j v n n m A A n v Z v Z v n j n m A n v n v n A N - % v v v v v v v v v ",
"b v v v v v v v v v $ - n A D D D A n n n n D S S S S S S n n n n S D S S n n - % c v v v b v v v v ",
"v v v v v v v v v v $ - h j m n n m m n n n n n n n n A n n n n n n n A n l h - % v v v v v v v v v ",
"v v v d x x G G G G % & k j m m N m m N m S m m m m m m m m m m m N N m n c p & % G G G x x x v v v ",
"v v c x x x G G G G : : h h j j j j j j j j j j j j j j j j j j j j j j Z Z h - & G G G x x x v v v ",
"v v v x x x G G G G % - l l k k k k k k k h h h k k k k k k k k k k k k k l l - % G G G x x x v v v ",
"x x x G G G G G G G % & - - - - - ; - - ; - - ; - ; - ; ; - ; - ; - - ; ; - - & : G G G G G G x x x ",
"x x x G G G G G G G & % $ $ % $ $ $ @ % $ $ $ $ $ % @ $ @ % $ $ @ % @ $ @ $ $ % % G G G G G G x x x ",
"x x x G G G G G G G V V V c # & % > e V M M M V M M V V e e e V b & % % % c V V V G G G G G G x x x ",
"x x x G G G G G G G G G G V - & : , g G G G G G G G G G x x d G V - - % - M G G G G G G G G G x x e ",
"G G G G G G G G G G G G G G G G v v v x x x v v v M b v v c c G E G G G G G G G G G G G G G G x x x ",
"G G G G G G G G G G G G G G G G v v v x x x v v v v v v v v v G G G G G G G G G G G G G G G G x x x ",
"G G G G G G G G G G G G G G G G v v v x x x v v v v v v v v v G G G G G G G G G G G G G G G G x g d ",
"G G G G G G G G G G G G G G G G v v v G G G G G G G G G v v v v v v G G G G G G G G G G x g d c v v ",
"G G G G G G G G G G G G G G G G v v v G G G G G G G G G v v v v v v G G G G G G G G G G x x g v v v ",
"G G G G G G G G G G G G G G G G v v v G G G G G G G G G v v v v v v G G G G G G G G E G x g g v v v ",
"v v v G G G G G G G G G v v v v G G G G G G G G G G G G G G G v v v v v v v v v v x x x v v v v v v ",
"v v v G G G G G G G G G v v v v G G G G G G G G G G G G G G G v v v v v b v v v v g x x v v v v v v ",
"v v v G G G G G G G G G v v v v G G G G G G G G G G G G G G G v v v v v v v v v c d x x v v v v v v "
};
