/* XPM */
static char *result[] = {
/* columns rows colors chars-per-pixel */
"50 50 33 1 ",
"  c #040404",
". c #19080F",
"X c #190810",
"o c #190910",
"O c #1A0910",
"+ c #161616",
"@ c gray21",
"# c #4A142A",
"$ c #4A142B",
"% c #4A152B",
"& c #4B152B",
"* c #621F2B",
"= c #62202B",
"- c #62202C",
"; c #63202C",
": c #4B4B4B",
"> c #8C2F2F",
", c #8D2F2F",
"< c #8D3030",
"1 c #9A3D3D",
"2 c #9A3E3E",
"3 c #9B3E3E",
"4 c #BE6613",
"5 c #BF6613",
"6 c #BF6614",
"7 c #BF6714",
"8 c #D8AB37",
"9 c #D8AB38",
"0 c #D9AB38",
"q c #D9AC38",
"w c #E4C333",
"e c #E5C333",
"r c #E5C434",
/* pixels */
"@@@+++   @@@@@@@@@@@@@+++   @@@@@@   ++++@@@@@@@@@",
"@@@+++   @@@@@@@@@@@@@+++   @@@@@@   ++++@@@@@@@@@",
"@@@+++   @@@@@@@@@@@@@+++   @@@@@@   ++++@@@@@@@@@",
"+++      +++@@@@@@@+++      @@@:::@@@    +++++++++",
"+++      +++@@@@@@@+++      @@@:::@@@    +++++++++",
"+++      +++@@@@@@@+++      @@@:::@@@    +++++++++",
"   @@@@@@   +++++++      +++@@@@@@@@@             ",
"   @@@@@@   +++++++      +++@@@@@@@@@             ",
"   @@@@@@   +++++++      +++@@@@@@@@@             ",
"@@@:::@@@          @@@@@@   +++++++++          @@@",
"@@@:::@@@     OoO  @@@@@@   +++++Oo.o          @@@",
"@@@:::@@@     .XO  @@@@@@   +++++XXOX          @@@",
"::::::@@@   @@oO.@@:::@@@@@@     XXXX@@@@   @@@:::",
"::::::@@@ XoOo7%&XXXXOXoXoooXXXXo#$%5ooXO   @@@:::",
"::::::@@@ Xo32w--1333333331111323-=-w12OX   @@@:::",
"::::::@@@ oX33r=-2333333333333133-*-e31O.   @@@:::",
"@@@@@@@@@ oo336$%2313333313311331$$$622Xo   @@@@@@",
"@@@@@@@@@ .X315$#1332331313333323#$#432OX   @@@@@@",
"@@@@@@@@@ oX135&$1121331333233333%&#533X.   @@@@@@",
"@@@++++++ Xo31r;*<<>,<>>><<><>><>;=-r33Xo   +++@@@",
"@@@++++++ X.><q#$><<><><>><<>><<<%##8<>oX   +++@@@",
"@@@++++++ Xo><q%#><>>>>,<<<<<<<<<#%%q>>oo   +++@@@",
"+++      +o.>>6=-,>><*-$$$$$-->><--;5<<oX+++   +++",
"+++      +.X<>5--<<<>*=#%$%#;-><<-==5<<Xo+++   +++",
"+++      +oX000$$08q0&$0900q#&q0q&$#800O.+++   +++",
"          Xo0q0%%0q00#%qq900$%q00###0q0XX         ",
"          Xoq00&&0q0q%#q0q90##0qq&%%qq0XX         ",
"          XXOo6-*.oXO##56q90$$ooo---5oOOo         ",
"@@@      @oo.O4;=XXXO$%45q8q%$ooo*;-5ooX.   @@@@@@",
"@@@      @XX--ooX-=;-OoXo.OooX-=-XXXO-=oX   @@@@@@",
"@@@      @XX*=*=---=-=*-=--==-;=-=-*;*=OX   @@@@@@",
"@@@   @@@:Oo;==;-=***=-;-=--*-=-*=---*=OO@@@@@@:::",
"@@@   @@@:XX$&---*--*-*;;--==---;-=--%&XX@@@@@@:::",
"@@@   @@@:Oo$#**=*--*-*=;=*-=-=---*==%$oo@@@@@@:::",
"@@@   @@@:.X##----=-=-==*--==*=*==-==##Oo++++++@@@",
"@@@   @@@:oX&$$%#$#&##%$$#%#%$###%$$%%&oo++++++@@@",
"@@@   @@@:oOo.oooXooXoXoo.oO..oooXOXXooXo++++++@@@",
"@@@   @@@@oXXXXoO.Xo..OXXOooo.oOOOooXXooo      +++",
"@@@   @@@@@@@@oXX++   +++@@@@@@@@oooX          +++",
"@@@   @@@@@@@@ooO++   +++@@@@@@@@OXOX          +++",
"@@@   @@@@@@@@@@+++   +++@@@@@@@@@@@@          +++",
"+++   @@@@@@++++         ++++++++++++    @@@@@@   ",
"+++   @@@@@@++++         ++++++++++++    @@@@@@   ",
"+++   @@@@@@++++         ++++++++++++    @@@@@@   ",
"      ++++++    @@@@@@@@@            @@@@:::@@@@@@",
"      ++++++    @@@@@@@@@            @@@@:::@@@@@@",
"      ++++++    @@@@@@@@@            @@@@:::@@@@@@",
"@@@@@@      @@@@::::::@@@   @@@@@@   @@@@::::::@@@",
"@@@@@@      @@@@::::::@@@   @@@@@@   @@@@::::::@@@",
"@@@@@@      @@@@::::::@@@   @@@@@@   @@@@::::::@@@"
};
