/* XPM */
static char *result[] = {
/* columns rows colors chars-per-pixel */
"50 50 22 1 ",
"  c #040404",
". c #170E12",
"X c #161616",
"o c #26181E",
"O c #181425",
"+ c gray21",
"@ c #4C1318",
"# c #5F181F",
"$ c #462622",
"% c #743F39",
"& c #583845",
"* c #4B4B4B",
"= c #9D2831",
"- c #B72E3B",
"; c #B86F50",
": c #D24B56",
"> c #E0C000",
", c #FFEB77",
"< c #536193",
"1 c #8F80BA",
"2 c #D8DAA4",
"3 c #FFFADD",
/* pixels */
"+++XXX   +++++++++++++XXX   ++++++   XXXX+++++++++",
"+++XXX   +++++++++++++XXX   ++++++   XXXX+++++++++",
"+++XXX   +++++++++++++XXX   ++++++   XXXX+++++++++",
"XXX      XXX+++++++XXX      +++***+++    XXXXXXXXX",
"XXX      XXX+2233++XXX      +++3333++    XXXXXXXXX",
"XXX      XXX+2233++XXX      +++3333++    XXXXXXXXX",
"   ++++++  2233XXXX  ::::::X+++++2233             ",
"   ++++++  2233XXXX  ::::::X+++++2233             ",
"   ++++++  2233XXXX::------::++++2233             ",
"+++***+++  2233    ::------::XXXX2233          +++",
"+++***+++  223333::----------::223333          +++",
"+++***+++  223333::----------::223333          +++",
"******+++   +22##==----------==##33  ++++   +++***",
"******+++   +22##==----------==##33  ++++   +++***",
"******+++   +++####==------==####    ++++   +++***",
"******+++   +++####==------==####    ++++   +++***",
"+++++++++   +++######======######++++++++   ++++++",
"+++++++++   +++######======######++++++++   ++++++",
"+++++++++   +++@@######==######@@++++++++   ++++++",
"+++XXXXXX   +++@@######==######@@****++++   XXX+++",
"+++XXXXXX>>OOOO>>@@##########@@,,OOOO,,++   XXX+++",
"+++XXXXXX>>OOOO>>@@##########@@,,OOOO,,++   XXX+++",
"XXX      >>>>>>>>@@##########@@,,,,,,,,++XXX   XXX",
"XXX      >>>>>>>>@@##########@@,,,,,,,,++XXX   XXX",
"XXX      <<<<<<>><<@@@@##@@@@<<,,<<<<<<++XXX   XXX",
"         <<<<<<>><<@@@@##@@@@<<,,<<<<<<XX         ",
"         OOOOOO<<OO<<<<##<<<<OO<<OOOOOOXX         ",
"         OOOOOO<<OO<<<<##<<<<OO<<OOOOOOXX         ",
"+++      <<OOOOOOOOOOOO<<OOOOOOOOOOOO<<     ++++++",
"+++      <<OOOOOOOOOOOO<<OOOOOOOOOOOO<<     ++++++",
"+++      <<OOOOOOOOOOOOOOOOOOOO<<<<<<<<     ++++++",
"+++   +++<<OOOOOOOOOOOOOOOOOOOO<<<<<<<<  ++++++***",
"+++   +++**<<<<OOOOOOOOOOOOOO<<<<$$11$$  ++++++***",
"+++   +++**<<<<OOOOOOOOOOOOOO<<<<$$11$$  ++++++***",
"+++   +++***+++++%%%%;;;;;;;;;;**11$$$$$$XXXXXX+++",
"+++   +++***+++++%%%%;;;;;;;;;;**11$$$$$$XXXXXX+++",
"+++   +++***+++++oooooo..&&&&&&***+++$$$$XXXXXX+++",
"+++   ++++++++++Xoooooo..&&&&&&++++++$$$$      XXX",
"+++   ++++++++++XooooooXX&&&&&&++++++          XXX",
"+++   ++++++++++XooooooXX&&&&&&++++++          XXX",
"+++   ++++++++++Xoooo XXX++&&&&++++++          XXX",
"XXX   ++++++XXXX oooo    XX&&&&XXXXXX    ++++++   ",
"XXX   ++++++XXXX   oo    XX&&XXXXXXXX    ++++++   ",
"XXX   ++++++XXXX   oo    XX&&XXXXXXXX    ++++++   ",
"      XXXXXX    +++++++++            ++++***++++++",
"      XXXXXX    +++++++++            ++++***++++++",
"      XXXXXX    +++++++++            ++++***++++++",
"++++++      ++++******+++   ++++++   ++++******+++",
"++++++      ++++******+++   ++++++   ++++******+++",
"++++++      ++++******+++   ++++++   ++++******+++"
};
