/* XPM */
static char *result[] = {
/* columns rows colors chars-per-pixel */
"50 50 36 1 ",
"  c #040404",
". c #170E12",
"X c #161616",
"o c #26181E",
"O c #181425",
"+ c #0F2426",
"@ c #193D3F",
"# c gray21",
"$ c #5F181F",
"% c #462622",
"& c #743F39",
"* c #2B2442",
"= c #583845",
"- c #3A4466",
"; c #4B4B4B",
": c #4E4177",
"> c #9E2835",
", c #B72E3B",
"< c #FF0044",
"1 c #CD3846",
"2 c #B86F50",
"3 c #63C64D",
"4 c #E0C000",
"5 c #FFE762",
"6 c #FFEB77",
"7 c #536193",
"8 c #8F80BA",
"9 c #E1888F",
"0 c #D4A996",
"q c #D8DAA4",
"w c #BCB3D6",
"e c #DBEFC4",
"r c #FFF7C7",
"t c #FFFADD",
"y c #D7D1E6",
"u c white",
/* pixels */
"###XXX   #############XXX   ######   XXXX#########",
"###XXX   #############XXX   ######   XXXX#########",
"###XXX   #############XXX   ######   XXXX#########",
"XXX      XXX#######XXX      ###;;;###    XXXXXXXXX",
"XXX      Xqquu#####XXX      ###;qquu#    XXXXXXXXX",
"XXX      Xqquu#####XXX      ###;qquu#    XXXXXXXXX",
"   #####qqttXXXXXX$$>>1199XX######qquu            ",
"   #####qqttXXXXXX$$>>1199XX######qquu            ",
"   #####qqttXXXX$$$$$$>>1199######qqtt            ",
"###;;;##qqtt    $$$$$$>>1199XXXXXXqqtt         ###",
"###;;;### qqttttqq$$,,99,,99,,qqqqttX          ###",
"###;;;### qqttttqq$$,,99,,99,,qqqqttX          ###",
";;;;;;###   qqqq$$,,99OOOOOO,,99tt   ####   ###;;;",
";;;;;;###   qqqq$$,,99OOOOOO,,99tt   ####   ###;;;",
";;;;;;###   ##$$$$,,OOwwyywwOO,,     ####   ###;;;",
";;;;;;###   ##$$$$,,OOwwyywwOO,,     ####   ###;;;",
"#########   ##$$$$99OO<<yy<<OO99#########   ######",
"#########   ##$$$$99OO<<yy<<OO99#########   ######",
"#########   ##$$$$,,OOwwyywwOO,,#########   ######",
"###XXXXXX   ##$$$$,,OOwwyywwOO,,;;;;;####   XXX###",
"###XXXXXX 44OO44$$99OO::ww::OO99OOtt;####   XXX###",
"###XXXXXX 44OO44$$99OO::ww::OO99OOtt;####   XXX###",
"XXX      X444444>>>>99**::**9911tttt#####XXX   XXX",
"XXX      X444444>>>>99**::**9911tttt#####XXX   XXX",
"XXX      X----44OO77>>99,,9977OOtt####ee33XX   XXX",
"          ----44OO77>>99,,9977OOttXXXXee33        ",
"          OOOO--66OO77669966OO66XXXX@@33ee        ",
"          OOOO--66OO77669966OO66XXXX@@33ee        ",
"###      #OOOOOOOO7766OO66OOrr--OO%%++++    ######",
"###      #OOOOOOOO7766OO66OOrr--OO%%++++    ######",
"###      #ww77OOOO77OO66rrrrOOOOOO&&&&      ######",
"###   ###;ww77OOOO77OO66rrrrOOOOOO&&&&   ######;;;",
"###   ###;88ww7777OOOO66OOrrOO88%%%%#    ######;;;",
"###   ###;88ww7777OOOO66OOrrOO88%%%%#    ######;;;",
"###   ###;8888&&&&&&2222550000%%88###    XXXXXX###",
"###   ###;8888&&&&&&2222550000%%88###    XXXXXX###",
"###   ###;;;####oooooo....====;;;;###    XXXXXX###",
"###   ##########oooooo....====#######          XXX",
"###   ##########ooooooXX======#######          XXX",
"###   ##########ooooooXX======#######          XXX",
"###   ##########oooo  XX====#########          XXX",
"XXX   ######XXXXoooo    ====XXXXXXXXX    ######   ",
"XXX   ######XXXXoo      ==XXXXXXXXXXX    ######   ",
"XXX   ######XXXXoo      ==XXXXXXXXXXX    ######   ",
"      XXXXXX    #########            ####;;;######",
"      XXXXXX    #########            ####;;;######",
"      XXXXXX    #########            ####;;;######",
"######      ####;;;;;;###   ######   ####;;;;;;###",
"######      ####;;;;;;###   ######   ####;;;;;;###",
"######      ####;;;;;;###   ######   ####;;;;;;###"
};
