/* XPM */
static char *result[] = {
/* columns rows colors chars-per-pixel */
"50 50 35 1 ",
"  c #040404",
". c #161616",
"X c #26181E",
"o c #181425",
"O c #0F2426",
"+ c #193D3F",
"@ c gray21",
"# c #5F181F",
"$ c #462622",
"% c #743F39",
"& c #2B2442",
"* c #583845",
"= c #3A4466",
"- c #4B4B4B",
"; c #4E4177",
": c #9E2835",
"> c #B72E3B",
", c #FF0044",
"< c #CD3846",
"1 c #B86F50",
"2 c #63C64D",
"3 c #E0C000",
"4 c #FFE762",
"5 c #FFEB77",
"6 c #536193",
"7 c #8F80BA",
"8 c #E1888F",
"9 c #D4A996",
"0 c #D8DAA4",
"q c #BCB3D6",
"w c #DBEFC4",
"e c #FFF7C7",
"r c #FFFADD",
"t c #D7D1E6",
"y c white",
/* pixels */
"@@@...   @@@@@@@@@@@@@...   @@@@@@   ....@@@@@@@@@",
"@@@...   @@@@@@@@@@@@@...   @@@@@@   ....@@@@@@@@@",
"@@@...   @@@@@@@@@@@@@...   @@@@@@   ....@@@@@@@@@",
"...      ...@@@@@@@...      @@@---@@@    .........",
"...      ...@@@@@@@...      @@@---@@@    .........",
"...      ...@@@@@@@...      @@@---@@@    .........",
"   @@@@@@   ..yy00.      ...@@@@@@@@yy00          ",
"   @@@@@@   ..yy00.      ...@@@@@@@@yy00          ",
"   @@@@@@   yy00...     88<<::##@@@@@ rr00        ",
"@@@---@@@   yy00   @@@@@88<<::##..... rr00     @@@",
"@@@---@@@   rr00   @@@88<<::######... rr00     @@@",
"@@@---@@@   rr00   @@@88<<::######... rr00     @@@",
"------@@@   @@rr0000>>88>>88>>##00rrrr00@   @@@---",
"------@@@   @@rr0000>>88>>88>>##00rrrr00@   @@@---",
"------@@@   @@@@rr88>>oooooo88>>##0000@@@   @@@---",
"------@@@   @@@@rr88>>oooooo88>>##0000@@@   @@@---",
"@@@@@@@@@   @@@@-->>ooqqttqqoo>>####@@@@@   @@@@@@",
"@@@@@@@@@   @@@@-->>ooqqttqqoo>>####@@@@@   @@@@@@",
"@@@@@@@@@   @@@@--88oo,,tt,,oo88####@@@@@   @@@@@@",
"@@@......   @@@@@@88oo,,tt,,oo88####-@@@@   ...@@@",
"@@@......   @@@@@@>>ooqqttqqoo>>####-@@@@   ...@@@",
"@@@......   @@@@@@>>ooqqttqqoo>>####-@@@@   ...@@@",
"...      .....rroo88oo;;qq;;oo88##33oo33@...   ...",
"...      .....rroo88oo;;qq;;oo88##33oo33@...   ...",
"...      .....rrrr<<88&&;;&&88::::333333@...   ...",
"              rrrr<<88&&;;&&88::::333333.         ",
"        22ww    rroo6688>>88::66oo33====.         ",
"        22ww    rroo6688>>88::66oo33====.         ",
"@@@     ww22++@@@@55oo55885566oo55==oooo    @@@@@@",
"@@@     ww22++@@@@55oo55885566oo55==oooo    @@@@@@",
"@@@      @OOOO$$oo==eeoo55oo5566oooooooo    @@@@@@",
"@@@   @@@-OOOO$$oo==eeoo55oo5566oooooooo @@@@@@---",
"@@@   @@@---%%%%ooooooeeee55oo66oooo66qq @@@@@@---",
"@@@   @@@---%%%%ooooooeeee55oo66oooo66qq @@@@@@---",
"@@@   @@@---@@$$$$77ooeeoo55oooo6666qq77 ......@@@",
"@@@   @@@---@@$$$$77ooeeoo55oooo6666qq77 ......@@@",
"@@@   @@@---@@@@77$$9999441111%%%%%%7777 ......@@@",
"@@@   @@@@@@@@@@77$$9999441111%%%%%%7777       ...",
"@@@   @@@@@@@@@@... ******@@XXXXXX@@@          ...",
"@@@   @@@@@@@@@@... ******@@XXXXXX@@@          ...",
"@@@   @@@@@@@@@@...   ****@@@@XXXX@@@          ...",
"...   @@@@@@....      ****....XXXX...    @@@@@@   ",
"...   @@@@@@....        **......XX...    @@@@@@   ",
"...   @@@@@@....        **......XX...    @@@@@@   ",
"      ......    @@@@@@@@@            @@@@---@@@@@@",
"      ......    @@@@@@@@@            @@@@---@@@@@@",
"      ......    @@@@@@@@@            @@@@---@@@@@@",
"@@@@@@      @@@@------@@@   @@@@@@   @@@@------@@@",
"@@@@@@      @@@@------@@@   @@@@@@   @@@@------@@@",
"@@@@@@      @@@@------@@@   @@@@@@   @@@@------@@@"
};
