/* XPM */
static char *result[] = {
/* columns rows colors chars-per-pixel */
"50 50 21 1 ",
"  c #040404",
". c #161616",
"X c #26181E",
"o c #181425",
"O c gray21",
"+ c #4C1318",
"@ c #5F181F",
"# c #462622",
"$ c #743F39",
"% c #583845",
"& c #4B4B4B",
"* c #9D2831",
"= c #B72E3B",
"- c #B86F50",
"; c #D24B56",
": c #E0C000",
"> c #FFEB77",
", c #536193",
"< c #8F80BA",
"1 c #D8DAA4",
"2 c #FFFADD",
/* pixels */
"OOO...   OOOOOOOOOOOOO...   OOOOOO   ....OOOOOOOOO",
"OOO...   OOOOOOOOOOOOO...   OOOOOO   ....OOOOOOOOO",
"OOO...   OOOOOOOOOOOOO...   OOOOOO   ....OOOOOOOOO",
"...      ...OOOOOOO...      OOO&&&OOO    .........",
"...      ...OOOOOOO...      OOO&&&OOO    .........",
"...      ...OOOOOOO...      OOO&&&OOO    .........",
"   OOOOOO   .1122..      ...OOO2222OO             ",
"   OOOOOO   .1122..      ...OOO2222OO             ",
"   OOOOOO  1122....  ;;;;;;.OOOOO1122             ",
"OOO&&&OOO  1122    OO;;;;;; .....1122          OOO",
"OOO&&&OOO  1122    ;;======;;....1122          OOO",
"OOO&&&OOO  1122    ;;======;;....1122          OOO",
"&&&&&&OOO  112222;;==========;;112222OOOO   OOO&&&",
"&&&&&&OOO  112222;;==========;;112222OOOO   OOO&&&",
"&&&&&&OOO   O11@@**==========**@@22  OOOO   OOO&&&",
"&&&&&&OOO   O11@@**==========**@@22  OOOO   OOO&&&",
"OOOOOOOOO   OOO@@@@**======**@@@@OOOOOOOO   OOOOOO",
"OOOOOOOOO   OOO@@@@**======**@@@@OOOOOOOO   OOOOOO",
"OOOOOOOOO   OOO@@@@@@******@@@@@@OOOOOOOO   OOOOOO",
"OOO......   OOO@@@@@@******@@@@@@&&&&OOOO   ...OOO",
"OOO......   OOO++@@@@@@**@@@@@@++&&&&OOOO   ...OOO",
"OOO......   OOO++@@@@@@**@@@@@@++&&&&OOOO   ...OOO",
"...      ::oooo::++@@@@@@@@@@++>>oooo>>OO...   ...",
"...      ::oooo::++@@@@@@@@@@++>>oooo>>OO...   ...",
"...      ::::::::++@@@@@@@@@@++>>>>>>>>OO...   ...",
"         ::::::::++@@@@@@@@@@++>>>>>>>>..         ",
"         ,,,,,,::,,++++@@++++,,>>,,,,,,..         ",
"         ,,,,,,::,,++++@@++++,,>>,,,,,,..         ",
"OOO      oooooo,,oo,,,,@@,,,,oo,,oooooo     OOOOOO",
"OOO      oooooo,,oo,,,,@@,,,,oo,,oooooo     OOOOOO",
"OOO      ,,oooooooooooo,,oooooooooooo,,     OOOOOO",
"OOO   OOO,,oooooooooooo,,oooooooooooo,,  OOOOOO&&&",
"OOO   OOO,,oooooooooooooooooooo,,,,,,,,  OOOOOO&&&",
"OOO   OOO,,oooooooooooooooooooo,,,,,,,,  OOOOOO&&&",
"OOO   OOO&&,,,,oooooooooooooo,,,,##<<##  ......OOO",
"OOO   OOO&&,,,,oooooooooooooo,,,,##<<##  ......OOO",
"OOO   OOO&&&OOOOO$$$$----------&&<<######......OOO",
"OOO   OOOOOOOOOO.$$$$----------OO<<######      ...",
"OOO   OOOOOOOOOO.XXXXXX..%%%%%%OOOOOO####      ...",
"OOO   OOOOOOOOOO.XXXXXX..%%%%%%OOOOOO####      ...",
"OOO   OOOOOOOOOO.XXXX ...OO%%%%OOOOOO          ...",
"...   OOOOOO.... XXXX    ..%%%%......    OOOOOO   ",
"...   OOOOOO....   XX    ..%%........    OOOOOO   ",
"...   OOOOOO....   XX    ..%%........    OOOOOO   ",
"      ......    OOOOOOOOO            OOOO&&&OOOOOO",
"      ......    OOOOOOOOO            OOOO&&&OOOOOO",
"      ......    OOOOOOOOO            OOOO&&&OOOOOO",
"OOOOOO      OOOO&&&&&&OOO   OOOOOO   OOOO&&&&&&OOO",
"OOOOOO      OOOO&&&&&&OOO   OOOOOO   OOOO&&&&&&OOO",
"OOOOOO      OOOO&&&&&&OOO   OOOOOO   OOOO&&&&&&OOO"
};
