/* XPM */
static char *result[] = {
/* columns rows colors chars-per-pixel */
"50 50 36 1 ",
"  c #040404",
". c #170E12",
"X c #161616",
"o c #26181E",
"O c #181425",
"+ c #0F2426",
"@ c #193D3F",
"# c gray21",
"$ c #5F181F",
"% c #462622",
"& c #743F39",
"* c #2B2442",
"= c #583845",
"- c #3A4466",
"; c #4B4B4B",
": c #4E4177",
"> c #9E2835",
", c #B72E3B",
"< c #FF0044",
"1 c #CD3846",
"2 c #B86F50",
"3 c #63C64D",
"4 c #E0C000",
"5 c #FFE762",
"6 c #FFEB77",
"7 c #536193",
"8 c #8F80BA",
"9 c #E1888F",
"0 c #D4A996",
"q c #D8DAA4",
"w c #BCB3D6",
"e c #DBEFC4",
"r c #FFF7C7",
"t c #FFFADD",
"y c #D7D1E6",
"u c white",
/* pixels */
"###XXX   #############XXX   ######   XXXX#########",
"###XXX   #############XXX   ######   XXXX#########",
"###XXX   #############XXX   ######   XXXX#########",
"XXX      XXX#######XXX      ###;;;###    XXXXXXXXX",
"XXX      XXX##uuqq#XXX      ###;;;##uuqq XXXXXXXXX",
"XXX      XXX##uuqq#XXX      ###;;;##uuqq XXXXXXXXX",
"   ######   uuqqXXX     9911>>$$##### ttqq        ",
"   ######   uuqqXXX     9911>>$$##### ttqq        ",
"   ######   ttqqXXX   9911>>$$$$$$### ttqq        ",
"###;;;###   ttqq   ###9911>>$$$$$$XXX ttqq     ###",
"###;;;###     ttqqqq,,99,,99,,$$qqttttqq       ###",
"###;;;###     ttqqqq,,99,,99,,$$qqttttqq       ###",
";;;;;;###   ####tt99,,OOOOOO99,,$$qqqq###   ###;;;",
";;;;;;###   ####tt99,,OOOOOO99,,$$qqqq###   ###;;;",
";;;;;;###   ######,,OOwwyywwOO,,$$$$ ####   ###;;;",
";;;;;;###   ######,,OOwwyywwOO,,$$$$ ####   ###;;;",
"#########   ####;;99OO<<yy<<OO99$$$$#####   ######",
"#########   ####;;99OO<<yy<<OO99$$$$#####   ######",
"#########   ####;;,,OOwwyywwOO,,$$$$#####   ######",
"###XXXXXX   ######,,OOwwyywwOO,,$$$$;####   XXX###",
"###XXXXXX   ##ttOO99OO::ww::OO99$$44OO44#   XXX###",
"###XXXXXX   ##ttOO99OO::ww::OO99$$44OO44#   XXX###",
"XXX      XXXXXtttt1199**::**99>>>>444444#XXX   XXX",
"XXX      XXXXXtttt1199**::**99>>>>444444#XXX   XXX",
"XXX     33eeXXXXttOO7799,,99>>77OO44----#XXX   XXX",
"        33ee    ttOO7799,,99>>77OO44----X         ",
"        ee33@@    66OO66996677OO66--OOOOX         ",
"        ee33@@    66OO66996677OO66--OOOOX         ",
"###      #++++%%OO--rrOO66OO6677OOOOOOOO    ######",
"###      #++++%%OO--rrOO66OO6677OOOOOOOO    ######",
"###      ###&&&&OOOOOOrrrr66OO77OOOO77ww    ######",
"###   ###;;;&&&&OOOOOOrrrr66OO77OOOO77ww ######;;;",
"###   ###;;;;;%%%%88OOrrOO66OOOO7777ww88 ######;;;",
"###   ###;;;;;%%%%88OOrrOO66OOOO7777ww88 ######;;;",
"###   ###;;;####88%%0000552222&&&&&&8888 XXXXXX###",
"###   ###;;;####88%%0000552222&&&&&&8888 XXXXXX###",
"###   ###;;;####### ====....oooooo###    XXXXXX###",
"###   ##########XXX ====....oooooo###          XXX",
"###   ##########XXX ======##oooooo###          XXX",
"###   ##########XXX ======##oooooo###          XXX",
"###   ##########XXX   ====####oooo###          XXX",
"XXX   ######XXXX      ====XXXXooooXXX    ######   ",
"XXX   ######XXXX        ==XXXXXXooXXX    ######   ",
"XXX   ######XXXX        ==XXXXXXooXXX    ######   ",
"      XXXXXX    #########            ####;;;######",
"      XXXXXX    #########            ####;;;######",
"      XXXXXX    #########            ####;;;######",
"######      ####;;;;;;###   ######   ####;;;;;;###",
"######      ####;;;;;;###   ######   ####;;;;;;###",
"######      ####;;;;;;###   ######   ####;;;;;;###"
};
