/* XPM */
static char *result[] = {
/* columns rows colors chars-per-pixel */
"50 50 35 1 ",
"  c #040404",
". c #161616",
"X c #26181E",
"o c #181425",
"O c #0F2426",
"+ c #193D3F",
"@ c gray21",
"# c #5F181F",
"$ c #462622",
"% c #743F39",
"& c #2B2442",
"* c #583845",
"= c #3A4466",
"- c #4B4B4B",
"; c #4E4177",
": c #9E2835",
"> c #B72E3B",
", c #FF0044",
"< c #CD3846",
"1 c #B86F50",
"2 c #63C64D",
"3 c #E0C000",
"4 c #FFE762",
"5 c #FFEB77",
"6 c #536193",
"7 c #8F80BA",
"8 c #E1888F",
"9 c #D4A996",
"0 c #D8DAA4",
"q c #BCB3D6",
"w c #DBEFC4",
"e c #FFF7C7",
"r c #FFFADD",
"t c #D7D1E6",
"y c white",
/* pixels */
"@@@...   @@@@@@@@@@@@@...   @@@@@@   ....@@@@@@@@@",
"@@@...   @@@@@@@@@@@@@...   @@@@@@   ....@@@@@@@@@",
"@@@...   @@@@@@@@@@@@@...   @@@@@@   ....@@@@@@@@@",
"...      ...@@@@@@@...      @@@---@@@    .........",
"...      ...@@@@@@@...      @@@---@@@    .........",
"...      ...@@@@@@@...      @@@---@@@    .........",
"   @@@@@@ 00yy.....      ...@@@@00yy@             ",
"   @@@@@@ 00yy.....      ...@@@@00yy@             ",
"   @@@@@00rr......##::<<88..@@@@@@00yy            ",
"@@@---@@00rr      ##::<<88  ......00yy         @@@",
"@@@---@@00rr    ######::<<88......00rr         @@@",
"@@@---@@00rr    ######::<<88......00rr         @@@",
"------@@@ 00rrrr00##>>88>>88>>0000rr @@@@   @@@---",
"------@@@ 00rrrr00##>>88>>88>>0000rr @@@@   @@@---",
"------@@@   0000##>>88oooooo>>88rr   @@@@   @@@---",
"------@@@   0000##>>88oooooo>>88rr   @@@@   @@@---",
"@@@@@@@@@   @@####>>ooqqttqqoo>>@@@@@@@@@   @@@@@@",
"@@@@@@@@@   @@####>>ooqqttqqoo>>@@@@@@@@@   @@@@@@",
"@@@@@@@@@   @@####88oo,,tt,,oo88@@@@@@@@@   @@@@@@",
"@@@......   @@####88oo,,tt,,oo88-----@@@@   ...@@@",
"@@@......   @@####>>ooqqttqqoo>>-----@@@@   ...@@@",
"@@@......   @@####>>ooqqttqqoo>>-----@@@@   ...@@@",
"...      .33oo33##88oo;;qq;;oo88oorr@@@@@...   ...",
"...      .33oo33##88oo;;qq;;oo88oorr@@@@@...   ...",
"...      .333333::::88&&;;&&88<<rrrr@@@@@...   ...",
"          333333::::88&&;;&&88<<rrrr.....         ",
"          ====33oo66::88>>8866oorr....ww22        ",
"          ====33oo66::88>>8866oorr....ww22        ",
"@@@      @oooo==55oo66558855oo55    ++22ww  @@@@@@",
"@@@      @oooo==55oo66558855oo55    ++22ww  @@@@@@",
"@@@      @oooooooo6655oo55ooee==oo$$OOOO    @@@@@@",
"@@@   @@@-oooooooo6655oo55ooee==oo$$OOOO @@@@@@---",
"@@@   @@@-qq66oooo66oo55eeeeoooooo%%%%   @@@@@@---",
"@@@   @@@-qq66oooo66oo55eeeeoooooo%%%%   @@@@@@---",
"@@@   @@@-77qq6666oooo55ooeeoo77$$$$@    ......@@@",
"@@@   @@@-77qq6666oooo55ooeeoo77$$$$@    ......@@@",
"@@@   @@@-7777%%%%%%1111449999$$77@@@    ......@@@",
"@@@   @@@@7777%%%%%%1111449999$$77@@@          ...",
"@@@   @@@@@@@@@@XXXXXX..******@@@@@@@          ...",
"@@@   @@@@@@@@@@XXXXXX..******@@@@@@@          ...",
"@@@   @@@@@@@@@@XXXX  ..****@@@@@@@@@          ...",
"...   @@@@@@....XXXX    ****.........    @@@@@@   ",
"...   @@@@@@....XX      **...........    @@@@@@   ",
"...   @@@@@@....XX      **...........    @@@@@@   ",
"      ......    @@@@@@@@@            @@@@---@@@@@@",
"      ......    @@@@@@@@@            @@@@---@@@@@@",
"      ......    @@@@@@@@@            @@@@---@@@@@@",
"@@@@@@      @@@@------@@@   @@@@@@   @@@@------@@@",
"@@@@@@      @@@@------@@@   @@@@@@   @@@@------@@@",
"@@@@@@      @@@@------@@@   @@@@@@   @@@@------@@@"
};
