/* XPM */
static char *result[] = {
/* columns rows colors chars-per-pixel */
"50 50 9 1 ",
"  c black",
". c #422023",
"X c #4D2729",
"o c #5D3633",
"O c #534E4B",
"+ c #507D46",
"@ c #817975",
"# c #7BA45E",
"$ c #FADCC8",
/* pixels */
"XXX......XXXXXXXooooooooooooooo...XXXXXXXXXXXXXXXX",
"XXX......XXXXXXXooooooooooooooo...XXXXXXXXXXXXXXXX",
"XXX......XXXXXXXooooooooooooooo...XXXXXXXXXXXXXXXX",
"...oooooooooXXXX...ooooooooo...oooooooooooooXXXXXX",
"...oooooooooXXXX...oooo    o...oooooooooooooXXXXXX",
"...oooooooooXXXX...oooo    o...oooooooooooooXXXXXX",
"ooooooooooooooooXXX..  ###+.oooooooooooooooooooXXX",
"ooooooooooooooooXXX..  ###+.oooooooooooooooooooXXX",
"oooooooooooooo   XX....+  +.oooooooooooooooooooXXX",
"oooooooooooo  +##   XXo ++O++XXooooooooooooooooXXX",
"oooooooooooo  +##   XXo ++O++XXooooooooooooooooXXX",
"oooooooooooo   ##+++ Xo#++o  XXooooooooooooooooXXX",
"...oooooooooXXX  O++#  #++O  #oXXXXXXXXXX......XXX",
"...oooooooooXXX  O++#  #++O  #oXXXXXXXXXX......XXX",
"...oooooooooXXX     #  OOO    oXXXXXXXXXX......XXX",
"...oooooooooXXX     #  OOO    oXXXXXXXXXX......XXX",
"XXX......XXXXXXXX OO#OO $$@@@ oXXXXXXoooooooooo...",
"XXX......XXXXXXXX ##OOO$$$$$$@  XXXXXoooooooooo...",
"XXX......XXXXXXXX ##OOO$$$$$$@  XXXXXoooooooooo...",
"XXXoooooooooooooXX  O$$$$$ $$$@@ Xoooooooooooooooo",
"XXXoooooooooooooXXXX $$$     $@@ Xoooooooooooooooo",
"XXXoooooooooooooXXXX $$$     $@@ Xoooooooooooooooo",
"XXXoooooooooooooXXX. $$$   @@$@@ Xoooooooooooooooo",
"XXXoooooooooooooXXX..  $$$@@@$@@ Xoooooooooooooooo",
"XXXoooooooooooooXXX..  $$$@@@$@@ Xoooooooooooooooo",
"XXXooooooooooooo...o   O$$$$$$$$@  ooooooooooooooo",
"XXXooooooooooooo...o   O$$$$$$$$@  ooooooooooooooo",
"XXXooooooooooooo..  @OOOOO$$$$  @  ooooooooooooooo",
"XXXXXXoooooo....o @@O  OOOO$$   @  XXooooooooooXXX",
"XXXXXXoooooo....o @@O  OOOO$$   @  XXooooooooooXXX",
"XXXXXXoooooo....o @@O  O@@OOO@@@@  XXooooooooooXXX",
"XXXXXXXXXXXX...  @OO OO@@@@OO    ....XXXXXXXXXXXXX",
"XXXXXXXXXXXX...  @OO OO@@@@OO    ....XXXXXXXXXXXXX",
"XXXXXXXXXXXX...  @OO OO@@@@@@ X......XXXXXXXXXXXXX",
"XXX...oooooo...  @@@O  O@@@@@ .ooooooooooooo...XXX",
"XXX...oooooo...  @@@O  O@@@@@ .ooooooooooooo...XXX",
"XXX...oooooo...  @@@O  O@@@OO .ooooooooooooo...XXX",
"...ooooooooooooo. @@ OO@OOOOO .oooooooooooooooo...",
"...ooooooooooooo. @@ OO@OOOOO .oooooooooooooooo...",
"...ooooooooooooo..  O@@@OOOOO .oooooooooooooooo...",
"...ooooooooooooo..  O@@@OOOOO .oooooooooooooooo...",
"ooooooooooooooooXX  @@@   OOO Xoooooooooooooooo...",
"ooooooooooooooooXX     X     XXoooooooooooooooo...",
"ooooooooooooooooXX     X     XXoooooooooooooooo...",
"ooooooooooooooooXXXoooooooooXXXXXXoooooooooo...XXX",
"ooooooooooooooooXXXoooooooooXXXXXXoooooooooo...XXX",
"ooooooooooooooooXXXoooooooooXXXXXXoooooooooo...XXX",
"XXXoooooooooXXXXoooooooooooooooXXXXXXXXXX...XXXXXX",
"XXXoooooooooXXXXoooooooooooooooXXXXXXXXXX...XXXXXX",
"XXXoooooooooXXXXoooooooooooooooXXXXXXXXXX...XXXXXX"
};
