/* XPM */
static char *result[] = {
/* columns rows colors chars-per-pixel */
"50 50 116 2 ",
"   c black",
".  c #0D0A0B",
"X  c #160402",
"o  c #170602",
"O  c #190300",
"+  c #140A04",
"@  c #1C0801",
"#  c #1E0907",
"$  c #180E05",
"%  c #170D08",
"&  c #190B09",
"*  c #1E0908",
"=  c #1E0C08",
"-  c #1E0D09",
";  c #1A140C",
":  c #1D160F",
">  c #110F10",
",  c #140D10",
"<  c #150F11",
"1  c #131110",
"2  c #151110",
"3  c #181011",
"4  c #1A1513",
"5  c #1B1615",
"6  c #1B1A14",
"7  c #1C1815",
"8  c #1D1916",
"9  c #1F1B19",
"0  c #1F1C19",
"q  c #230F03",
"w  c #250E0D",
"e  c #20150C",
"r  c #321806",
"t  c #32181A",
"y  c #34191C",
"u  c #2C231C",
"i  c #34281D",
"p  c #392B1B",
"a  c #3B1E20",
"s  c #3C1D20",
"d  c #3D1F20",
"f  c #3D1F21",
"g  c #593013",
"h  c #411F22",
"j  c #412023",
"k  c #422023",
"l  c #442224",
"z  c #432725",
"x  c #442725",
"c  c #482426",
"v  c #462927",
"b  c #4B2628",
"n  c #4D2729",
"m  c #492B28",
"M  c #4F2E2B",
"N  c #4F2E2C",
"B  c #54302E",
"V  c #56322F",
"C  c #443B32",
"Z  c #573230",
"A  c #583330",
"S  c #593331",
"D  c #5A3532",
"F  c #5C3532",
"G  c #5D3633",
"H  c #AC5619",
"J  c #BE6729",
"K  c #C56826",
"L  c #C66826",
"P  c #C86824",
"I  c #C06C2E",
"U  c #E3772B",
"Y  c #E4792D",
"T  c #F17420",
"R  c #C7935E",
"E  c #FD9145",
"W  c #FF9A4B",
"Q  c #EFA25F",
"!  c #C89460",
"~  c #CF9A64",
"^  c #D09B67",
"/  c #D7A36A",
"(  c #DEAE76",
")  c #E4A667",
"_  c #E9A160",
"`  c #FFB36A",
"'  c #FFB86B",
"]  c #E1AD72",
"[  c #F0AF71",
"{  c #F6B577",
"}  c #F0B479",
"|  c #F2B478",
" . c #F5B879",
".. c #F6BA7D",
"X. c #FFBF7D",
"o. c #C3A180",
"O. c #C5A381",
"+. c #CBA683",
"@. c #C7A987",
"#. c #C7AA88",
"$. c #CCAB88",
"%. c #D7AF88",
"&. c #DAB28D",
"*. c #E3B98F",
"=. c #E5B98F",
"-. c #FABE80",
";. c #E4B990",
":. c #FFD085",
">. c #FFD086",
",. c #EFC092",
"<. c #FAC492",
"1. c #F5C699",
"2. c #FFCF9E",
"3. c #F6D0A6",
"4. c #FFD2A0",
"5. c #FFD5A2",
/* pixels */
"n n n k k k k k k n n n n n n n G G G G G G G G G G G G G G G k k k n n n n n n n n n n n n n n n n ",
"n n n k k k k k k n n n n n n n G G G G G G G G G G G G G G G k k k n n n n n n n n n n n n n n n n ",
"n n n k k k k k k n n n n n n n G G G G G G G G G G G G G G G k k k n n n n n n n n n n n n n n n n ",
"k k k G G G G G G G G G n n n n k k k G G G G G G G G G k k k G G G G G G G G G G G G G n n n n n n ",
"k k k G G G G G G G G G n n n n k k k G G G G G G G G G k k k G G G G G G G G G G G G G n n n n n n ",
"k k k G G G G G G G G G n n n n k k k G G G G G G G G G k k k G G G G G G G G G G G G G n n n n n n ",
"G G G G G G G G G G G G G G G G n n n k k k k k k k k k G G G G G G G G G G G G G G G G G G G n n n ",
"G G G G G G G G G G G G G G G G n n n k k k k k k k k k G G G G G G G G G G G G G G G G G G G n n n ",
"G G G G G G G G G G G G G G G G n n n k k k k k k k k k G G G G G G G G G G G G G G G G G G G n n n ",
"G G G G G G G G G G G G G G G G n n n n n n G G G G G G n n n G G G G G G G G G G G G G G G G n n n ",
"G G G G G G G G G G G G G G G G n n n n n n G G G G G G n n n G G G G G G G G G G G G G G G G n n n ",
"G G G G G G G G G G G G G G G G n n n n n n G G G G G G n n n G G G G G G G G G G G G G G G G n n n ",
"k k k G G G G G G G G G n n n n n n n G G G G G G G G G G G G n n n n n n n n n n k k k k k k n n n ",
"k k k G G G G G G G G G n n n n n n n G G G G G G G G G G G G n n n n n n n n n n k k k k k k n n n ",
"k k k G G G G G G G G G n n n n n n n G G G G G G G G G G G G n n n n n n n n n n k k k k k k n n n ",
"k k k G G G G G G G G G n n n n n n n G G G G G G G G G G G G n n n n n n n n n n k k k k k k n n n ",
"n n n k k k k k k n n n n n n n n n n G G G G G G G G G G G G n n n n n n G G G G G G G G G G k k k ",
"n n n k k k k k k n n n n n n n n n n m 5 7 8 4 M G G G G G G n n n n n n G G G G G G G G G G k k k ",
"n n n k k k k k k n n n n n n n n n f i ,.4.5.=.u N G G G G G n n n n n n G G G G G G G G G G k k k ",
"n n n G G G G G G G G G G G G G n n ; ] } ! R  .;.2 D G G G G n n n G G G G G G G G G G G G G G G G ",
"n n n G G G G G G G G G G G G G n n $ X.+.    ~ 2.1 D G G G G n n n G G G G G G G G G G G G G G G G ",
"n n n G G G G G G G G G G G G G n n O W $.    ^ 1.. G G G G G n n n G G G G G G G G G G G G G G G G ",
"n n n G G G G G G G G G G G G G n n @ Y | &.%...*.> h k n n n n n n G G G G G G G G G G G G G G G G ",
"n n n G G G G G G G G G G G G G n n d r U E [ / { o.< j n n n n n n G G G G G G G G G G G G G G G G ",
"n n n G G G G G G G G G G G G G n n n y o X + % K :.@., b n n n n n G G G G G G G G G G G G G G G G ",
"n n n G G G G G G G G G G G G G k k k G A A A V * P >.#.3 s k n n n G G G G G G G G G G G G G G G G ",
"n n n G G G G G G G G G G G G G k k k G G G G G Z # P :.O.9 t n n n G G G G G G G G G G G G G G G G ",
"n n n G G G G G G G G G G G G G k k k G G G G G G A w H -.3.C a n n G G G G G G G G G G G G G G G G ",
"n n n n n n G G G G G G k k k k G G G G G G G G G G v p ) ` <.0 n n n n n G G G G G G G G G G n n n ",
"n n n n n n G G G G G G k k k k G G G G G G G G G B : ( Q T _ 6 n n n n n G G G G G G G G G G n n n ",
"n n n n n n G G G G G G k k k k G G G G G G G G S - I ' J q e a n n n n n G G G G G G G G G G n n n ",
"n n n n n n n n n n n n k k k k G G G G G G G G F x g L = l l k k k k k k n n n n n n n n n n n n n ",
"n n n n n n n n n n n n k k k k G G G G G G G G G G z & c n n k k k k k k n n n n n n n n n n n n n ",
"n n n n n n n n n n n n k k k k G G G G G G G G G G G G n n n k k k k k k n n n n n n n n n n n n n ",
"n n n k k k G G G G G G k k k k G G G G G G G G G G G G k k k G G G G G G G G G G G G G k k k n n n ",
"n n n k k k G G G G G G k k k k G G G G G G G G G G G G k k k G G G G G G G G G G G G G k k k n n n ",
"n n n k k k G G G G G G k k k k G G G G G G G G G G G G k k k G G G G G G G G G G G G G k k k n n n ",
"k k k G G G G G G G G G G G G G k k k G G G G G G G G G k k k G G G G G G G G G G G G G G G G k k k ",
"k k k G G G G G G G G G G G G G k k k G G G G G G G G G k k k G G G G G G G G G G G G G G G G k k k ",
"k k k G G G G G G G G G G G G G k k k G G G G G G G G G k k k G G G G G G G G G G G G G G G G k k k ",
"k k k G G G G G G G G G G G G G k k k G G G G G G G G G k k k G G G G G G G G G G G G G G G G k k k ",
"G G G G G G G G G G G G G G G G n n n k k k n n n n n n n n n G G G G G G G G G G G G G G G G k k k ",
"G G G G G G G G G G G G G G G G n n n k k k n n n n n n n n n G G G G G G G G G G G G G G G G k k k ",
"G G G G G G G G G G G G G G G G n n n k k k n n n n n n n n n G G G G G G G G G G G G G G G G k k k ",
"G G G G G G G G G G G G G G G G n n n G G G G G G G G G n n n n n n G G G G G G G G G G k k k n n n ",
"G G G G G G G G G G G G G G G G n n n G G G G G G G G G n n n n n n G G G G G G G G G G k k k n n n ",
"G G G G G G G G G G G G G G G G n n n G G G G G G G G G n n n n n n G G G G G G G G G G k k k n n n ",
"n n n G G G G G G G G G n n n n G G G G G G G G G G G G G G G n n n n n n n n n n k k k n n n n n n ",
"n n n G G G G G G G G G n n n n G G G G G G G G G G G G G G G n n n n n n n n n n k k k n n n n n n ",
"n n n G G G G G G G G G n n n n G G G G G G G G G G G G G G G n n n n n n n n n n k k k n n n n n n "
};
