/* XPM */
static char *result[] = {
/* columns rows colors chars-per-pixel */
"50 50 8 1 ",
"  c black",
". c #040404",
"X c #161616",
"o c gray21",
"O c #4B4B4B",
"+ c #DF7126",
"@ c #D9A066",
"# c #EEC39A",
/* pixels */
"oooXXX...oooooooooooooXXX...oooooo...XXXXooooooooo",
"oooXXX...oooooooooooooXXX...oooooo...XXXXooooooooo",
"oooXXX...oooooooooooooXXX...oooooo...XXXXooooooooo",
"XXX......XXXoooooooXXX......oooOOOooo....XXXXXXXXX",
"XXX......XXXoooooooXXX......oooOOOooo....XXXXXXXXX",
"XXX......XXXoooooooXXX......oooOOOooo....XXXXXXXXX",
"...oooooo...XXXXXXX......XXXooooooooo.............",
"...oooooo...XXXXXXX......XXXooooooooo.............",
"...oooooo...XXXXXXX......XXXooooooooo.............",
"oooOOOooo..........oooooo...XXXXXXXXX..........ooo",
"oooOOOooo..........oooooo...XXXXXXXXX..........ooo",
"oooOOOooo..........oooooo...XXXXXXXXX..........ooo",
"OOOOOOooo...oooooooO    oooo.........oooo...oooOOO",
"OOOOOOooo...ooooooo #### ooo.........oooo...oooOOO",
"OOOOOOooo...oooooo @@@@@# oo.........oooo...oooOOO",
"OOOOOOooo...oooooo @#  @# oo.........oooo...oooOOO",
"ooooooooo...ooooOO +#  @# XX...oooooooooo...oooooo",
"ooooooooo...ooooOO +@##@# XX...oooooooooo...oooooo",
"ooooooooo...ooooOOO ++@@@# X...oooooooooo...oooooo",
"oooXXXXXX...oooooooo    +@# oooOOOOOOoooo...XXXooo",
"oooXXXXXX...ooooooooooXX +@# ooOOOOOOoooo...XXXooo",
"oooXXXXXX...ooooooooooXXX +@# oOOOOOOoooo...XXXooo",
"XXX......XXXXXXXXXXXXX...o +@# ooooooooooXXX...XXX",
"XXX......XXXXXXXXXXXXX...oo @@# oooooooooXXX...XXX",
"XXX......XXXXXXXXXXXXX...o @@+@ oooooooooXXX...XXX",
"......................... +@+  XXXXXXXXXX.........",
".........................X + XXXXXXXXXXXX.........",
".........................XX XXXXXXXXXXXXX.........",
"ooo......oooooooooo.........................oooooo",
"ooo......oooooooooo.........................oooooo",
"ooo......oooooooooo.........................oooooo",
"ooo...oooOOOOOOOooo...ooooooooooooooo....ooooooOOO",
"ooo...oooOOOOOOOooo...ooooooooooooooo....ooooooOOO",
"ooo...oooOOOOOOOooo...ooooooooooooooo....ooooooOOO",
"ooo...oooOOOooooooo...ooooooOOOOOOooo....XXXXXXooo",
"ooo...oooOOOooooooo...ooooooOOOOOOooo....XXXXXXooo",
"ooo...oooOOOooooooo...ooooooOOOOOOooo....XXXXXXooo",
"ooo...ooooooooooXXX...XXXoooooooooooo..........XXX",
"ooo...ooooooooooXXX...XXXoooooooooooo..........XXX",
"ooo...ooooooooooXXX...XXXoooooooooooo..........XXX",
"ooo...ooooooooooXXX...XXXoooooooooooo..........XXX",
"XXX...ooooooXXXX.........XXXXXXXXXXXX....oooooo...",
"XXX...ooooooXXXX.........XXXXXXXXXXXX....oooooo...",
"XXX...ooooooXXXX.........XXXXXXXXXXXX....oooooo...",
"......XXXXXX....ooooooooo............ooooOOOoooooo",
"......XXXXXX....ooooooooo............ooooOOOoooooo",
"......XXXXXX....ooooooooo............ooooOOOoooooo",
"oooooo......ooooOOOOOOooo...oooooo...ooooOOOOOOooo",
"oooooo......ooooOOOOOOooo...oooooo...ooooOOOOOOooo",
"oooooo......ooooOOOOOOooo...oooooo...ooooOOOOOOooo"
};
