/* XPM */
static char *result[] = {
/* columns rows colors chars-per-pixel */
"50 50 3 1 ",
"  c #422023",
". c #4D2729",
"X c #5D3633",
/* pixels */
"...      .......XXXXXXXXXXXXXXX   ................",
"...      .......XXXXXXXXXXXXXXX   ................",
"...      .......XXXXXXXXXXXXXXX   ................",
"   XXXXXXXXX....   XXXXXXXXX   XXXXXXXXXXXXX......",
"   XXXXXXXXX....   XXXXXXXXX   XXXXXXXXXXXXX......",
"   XXXXXXXXX....   XXXXXXXXX   XXXXXXXXXXXXX......",
"XXXXXXXXXXXXXXXX...         XXXXXXXXXXXXXXXXXXX...",
"XXXXXXXXXXXXXXXX...         XXXXXXXXXXXXXXXXXXX...",
"XXXXXXXXXXXXXXXX...         XXXXXXXXXXXXXXXXXXX...",
"XXXXXXXXXXXXXXXX......XXXXXX...XXXXXXXXXXXXXXXX...",
"XXXXXXXXXXXXXXXX......XXXXXX...XXXXXXXXXXXXXXXX...",
"XXXXXXXXXXXXXXXX......XXXXXX...XXXXXXXXXXXXXXXX...",
"   XXXXXXXXX.......XXXXXXXXXXXX..........      ...",
"   XXXXXXXXX.......XXXXXXXXXXXX..........      ...",
"   XXXXXXXXX.......XXXXXXXXXXXX..........      ...",
"   XXXXXXXXX.......XXXXXXXXXXXX..........      ...",
"...      ..........XXXXXXXXXXXX......XXXXXXXXXX   ",
"...      ..........XXXXXXXXXXXX......XXXXXXXXXX   ",
"...      ..........XXXXXXXXXXXX......XXXXXXXXXX   ",
"...XXXXXXXXXXXXX......XXXXXXXXX...XXXXXXXXXXXXXXXX",
"...XXXXXXXXXXXXX......XXXXXXXXX...XXXXXXXXXXXXXXXX",
"...XXXXXXXXXXXXX......XXXXXXXXX...XXXXXXXXXXXXXXXX",
"...XXXXXXXXXXXXX...         ......XXXXXXXXXXXXXXXX",
"...XXXXXXXXXXXXX...         ......XXXXXXXXXXXXXXXX",
"...XXXXXXXXXXXXX...         ......XXXXXXXXXXXXXXXX",
"...XXXXXXXXXXXXX   XXXXXXXXX   ...XXXXXXXXXXXXXXXX",
"...XXXXXXXXXXXXX   XXXXXXXXX   ...XXXXXXXXXXXXXXXX",
"...XXXXXXXXXXXXX   XXXXXXXXX   ...XXXXXXXXXXXXXXXX",
"......XXXXXX    XXXXXXXXXXXX.........XXXXXXXXXX...",
"......XXXXXX    XXXXXXXXXXXX.........XXXXXXXXXX...",
"......XXXXXX    XXXXXXXXXXXX.........XXXXXXXXXX...",
"............    XXXXXXXXXXXX...      .............",
"............    XXXXXXXXXXXX...      .............",
"............    XXXXXXXXXXXX...      .............",
"...   XXXXXX    XXXXXXXXXXXX   XXXXXXXXXXXXX   ...",
"...   XXXXXX    XXXXXXXXXXXX   XXXXXXXXXXXXX   ...",
"...   XXXXXX    XXXXXXXXXXXX   XXXXXXXXXXXXX   ...",
"   XXXXXXXXXXXXX   XXXXXXXXX   XXXXXXXXXXXXXXXX   ",
"   XXXXXXXXXXXXX   XXXXXXXXX   XXXXXXXXXXXXXXXX   ",
"   XXXXXXXXXXXXX   XXXXXXXXX   XXXXXXXXXXXXXXXX   ",
"   XXXXXXXXXXXXX   XXXXXXXXX   XXXXXXXXXXXXXXXX   ",
"XXXXXXXXXXXXXXXX...   .........XXXXXXXXXXXXXXXX   ",
"XXXXXXXXXXXXXXXX...   .........XXXXXXXXXXXXXXXX   ",
"XXXXXXXXXXXXXXXX...   .........XXXXXXXXXXXXXXXX   ",
"XXXXXXXXXXXXXXXX...XXXXXXXXX......XXXXXXXXXX   ...",
"XXXXXXXXXXXXXXXX...XXXXXXXXX......XXXXXXXXXX   ...",
"XXXXXXXXXXXXXXXX...XXXXXXXXX......XXXXXXXXXX   ...",
"...XXXXXXXXX....XXXXXXXXXXXXXXX..........   ......",
"...XXXXXXXXX....XXXXXXXXXXXXXXX..........   ......",
"...XXXXXXXXX....XXXXXXXXXXXXXXX..........   ......"
};
