/* XPM */
static char *result[] = {
/* columns rows colors chars-per-pixel */
"50 50 4 1 ",
"  c #040404",
". c #161616",
"X c gray21",
"o c #4B4B4B",
/* pixels */
"XXX...   XXXXXXXXXXXXX...   XXXXXX   ....XXXXXXXXX",
"XXX...   XXXXXXXXXXXXX...   XXXXXX   ....XXXXXXXXX",
"XXX...   XXXXXXXXXXXXX...   XXXXXX   ....XXXXXXXXX",
"...      ...XXXXXXX...      XXXoooXXX    .........",
"...      ...XXXXXXX...      XXXoooXXX    .........",
"...      ...XXXXXXX...      XXXoooXXX    .........",
"   XXXXXX   .......      ...XXXXXXXXX             ",
"   XXXXXX   .......      ...XXXXXXXXX             ",
"   XXXXXX   .......      ...XXXXXXXXX             ",
"XXXoooXXX          XXXXXX   .........          XXX",
"XXXoooXXX          XXXXXX   .........          XXX",
"XXXoooXXX          XXXXXX   .........          XXX",
"ooooooXXX   XXXXXXXoooXXXXXX         XXXX   XXXooo",
"ooooooXXX   XXXXXXXoooXXXXXX         XXXX   XXXooo",
"ooooooXXX   XXXXXXXoooXXXXXX         XXXX   XXXooo",
"ooooooXXX   XXXXXXXoooXXXXXX         XXXX   XXXooo",
"XXXXXXXXX   XXXXoooXXXXXX...   XXXXXXXXXX   XXXXXX",
"XXXXXXXXX   XXXXoooXXXXXX...   XXXXXXXXXX   XXXXXX",
"XXXXXXXXX   XXXXoooXXXXXX...   XXXXXXXXXX   XXXXXX",
"XXX......   XXXXXXXXXX...   XXXooooooXXXX   ...XXX",
"XXX......   XXXXXXXXXX...   XXXooooooXXXX   ...XXX",
"XXX......   XXXXXXXXXX...   XXXooooooXXXX   ...XXX",
"...      .............   XXXXXXXXXXXXXXXX...   ...",
"...      .............   XXXXXXXXXXXXXXXX...   ...",
"...      .............   XXXXXXXXXXXXXXXX...   ...",
"                         ................         ",
"                         ................         ",
"                         ................         ",
"XXX      XXXXXXXXXX                         XXXXXX",
"XXX      XXXXXXXXXX                         XXXXXX",
"XXX      XXXXXXXXXX                         XXXXXX",
"XXX   XXXoooooooXXX   XXXXXXXXXXXXXXX    XXXXXXooo",
"XXX   XXXoooooooXXX   XXXXXXXXXXXXXXX    XXXXXXooo",
"XXX   XXXoooooooXXX   XXXXXXXXXXXXXXX    XXXXXXooo",
"XXX   XXXoooXXXXXXX   XXXXXXooooooXXX    ......XXX",
"XXX   XXXoooXXXXXXX   XXXXXXooooooXXX    ......XXX",
"XXX   XXXoooXXXXXXX   XXXXXXooooooXXX    ......XXX",
"XXX   XXXXXXXXXX...   ...XXXXXXXXXXXX          ...",
"XXX   XXXXXXXXXX...   ...XXXXXXXXXXXX          ...",
"XXX   XXXXXXXXXX...   ...XXXXXXXXXXXX          ...",
"XXX   XXXXXXXXXX...   ...XXXXXXXXXXXX          ...",
"...   XXXXXX....         ............    XXXXXX   ",
"...   XXXXXX....         ............    XXXXXX   ",
"...   XXXXXX....         ............    XXXXXX   ",
"      ......    XXXXXXXXX            XXXXoooXXXXXX",
"      ......    XXXXXXXXX            XXXXoooXXXXXX",
"      ......    XXXXXXXXX            XXXXoooXXXXXX",
"XXXXXX      XXXXooooooXXX   XXXXXX   XXXXooooooXXX",
"XXXXXX      XXXXooooooXXX   XXXXXX   XXXXooooooXXX",
"XXXXXX      XXXXooooooXXX   XXXXXX   XXXXooooooXXX"
};
