/* XPM */
static char *result[] = {
/* columns rows colors chars-per-pixel */
"50 50 6 1 ",
"  c gray15",
". c #272727",
"X c gray18",
"o c #2F2F2F",
"O c #3C3C3C",
"+ c gray24",
/* pixels */
"Xoo......XooXooo+OOO++OO++OO+O+...ooXXXooooooXoooo",
"XXo......XoooXXoO+OO+O++O+O+OO+...oooXoooXXoooXooo",
"ooo......oXXooXoO+OOO+OO+OO+O++...ooXoooooXooooooo",
".. +++OO+OO+XoXX...+O+O+O++O. .++O+O+OO+O++Ooooooo",
" ..O+OO+O+OOooXo  .O+O+O++O+  .+O+++OO+O++OOoXXXoX",
"...OO+++OO+OoooX  .+O++++OO+...O+++OOO+OOO++ooooXX",
"+OO++OO++++OO+OOXoo.........OOOO++++OO+OO++OO++XoX",
"OOOO+OO+OOOOOOOOXoo........ O+OOOO+++OOO++O+O++oXo",
"+++OO++O+O+O+OO+oXX...... . OO+++O++O++++OO++OOooo",
"+++O+++OOO+++O+OXoooXo++++OOXooOOOO++O+OOO+OO++XXo",
"+++++O+O+++OO++OoooXooO+OO++oXo++O+OOO+++++OO++ooX",
"O+OOO+OOO++O+O++oXoXXXOO+O++ooo+OOOO+O+++++O++Oooo",
"...O+OO++O++oooXoooOOO+OOO+O+O+ooXXoXooXX .... XXo",
"...+++O+OOO+XoXXXoXOOOO+O+O+O++oooooXoooo .....XoX",
"...++OO++++OooXoooo+OOOO+++++++XXXoooooXX......ooo",
"...O++O++OO+XoXoXXX++OO+O+++OOOXooooooXoX......ooX",
"ooo......ooooXXoooo+++++OO+OO+OooooooOO+OO+OOOO. .",
"Xoo.... .oXooXooXXoO+O++O+O+OO+ooXXooO+OOO+O+++.  ",
"Xoo......oXoooXXXXX++++O+OO+OOOXooooXOO+OOOO+O+...",
"ooo+OO+O+OOO+++OoooooXOOO+OOOOOXoo+O+O+O++OOOOOOOO",
"ooXOOO+O++OOOO++ooooooOOOO++OOOoXX+O+O++O++OO+OOO+",
"oXoOOOOO+OOOOO+OXoooXoO+OO++O+Oooo+OOO++++++O+OOO+",
"XoX+OO+O+OO+OO++oXo.. ....  XoooXo++OOOOO++O+++O++",
"oXo+OO+OOOOO+++OXoX.........XooooX++++OOO+O++++O++",
"oXo++++O+OO+O+OOooo........ oXooXoO+O+OOO+OOOOO+++",
"XXo+OO+++O+O+O++. .++OO++OO+...oXo+O+O+OO++++O+O+O",
"ooo+O+O++O+OO+O+.. O++O+OO++.. XXo+OOOOO+++OO++O++",
"oXX+++++++OOOOO+...+O+++OO++...XXoOO+O+O+++OO+++++",
"XooXXo++OOOO....+O++OO++OOO+XoXooXooXOO++O+++OOoXX",
"XoooXo+O+O++....+O+O+++O++++XoooooooX+OOO+O+O+OoXo",
"ooXooo++O+O+....+++++OOO+O++ooooXooXXOO+OO+OOOOXoo",
"ooXoXoXoooXX....O+OO++O++OO+Xoo. ....XoooXoooooooX",
"XXoXXXoXoooX. ..O+++OO+O+++Oooo......oXoXooXXXoooo",
"oXXXXoXXooXo....OO+O++++++O+ooo......ooXXoooXXoooo",
"ooo  .+OO+OO ...+OOO+++O+OOO...+OOO+OOOO++O+...oXo",
"XXo...+OO+++ ...OOOOOOO++O+O.. O+OO+OO+O++++...XXo",
"XXo. .OO+++O....++OOOO+O++++...+OO+OOOO++++O ..ooX",
"...++O++++OOOO++...OOOOOO+++...+++OOOOOO+OO++++...",
"...++++O++OO+O++...O+OOO+++O...OOOO+O+OOOO++O+O...",
"...O+O++++O++OO+...++O++O+O+...+O++O++++OO++O+O...",
". .+++OO+++OOO+O...+O+O+O++O...+O+++O+OO++OOO+O...",
"OOO+OOOO+++++O++ooo...XoXooXoXoO++O+++OOOO+OO+O.  ",
"+O++OO+O+++O++O+Xoo...ooooXoooX++OOOO+OOO++OOOO.  ",
"OOOOO++OO+++OOOOooX...ooXooXoXo++OO++++OO+O++O+...",
"+OOO+O+OOO+OOO++ooXO+O++++O+XooooXO+OOOO+O+O...ooX",
"+O+OOOO+++O+OO+OooX+OO+OO+++Xooooo+O++OOOO+O...oXo",
"OO+OOO+O+OOO++++Xoo++OO++OO+oXXoooO++++O+OO+...ooo",
"ooo+O+OOO+OOoooo+OO+O+OOOO++O++oXoXooXXoo...oooooo",
"XooOO+++OOO+oooX+++OOO++OOO++++XXXooXoooo ..ooooXo",
"oooOOOOO+OO+XoooO+++OO+O++O++OOXXooXXoXoo ..oXoXoo"
};
